<svg xmlns="http://www.w3.org/2000/svg" xmlns:xlink="http://www.w3.org/1999/xlink" viewBox="0 0 841.2 788.83"><defs><style>.cls-1{isolation:isolate;}.cls-2{fill:#93a4a6;}.cls-3{fill:#ebeff0;}.cls-4{fill:#151515;}.cls-5{fill:#333;}.cls-6{fill:#353635;}.cls-7{fill:#aeaeae;mix-blend-mode:multiply;}.cls-8{fill:#b2dbb4;}.cls-9{fill:#2fb34a;}.cls-10,.cls-12{fill:#2e3e64;}.cls-11{fill:#1f1f58;opacity:0.1;}.cls-12{opacity:0.3;}.cls-13{fill:#212121;}.cls-14{fill:url(#linear-gradient);}.cls-15{fill:#f7f7f7;}.cls-16{fill:#eaf1f9;}.cls-17{fill:#47141e;}.cls-18{fill:#070808;}.cls-19{fill:#fff;}</style><linearGradient id="linear-gradient" x1="482.38" y1="368.86" x2="563.47" y2="368.86" gradientUnits="userSpaceOnUse"><stop offset="0.15" stop-color="#198737"/><stop offset="1" stop-color="#2fb34a"/></linearGradient></defs><title>monitor</title><g class="cls-1"><g id="Layer_2" data-name="Layer 2"><g id="iMac"><path class="cls-2" d="M409.19,475.06l10.53,104.7c0,12.15-7.66,23.39-18.57,28.74L313,636.83a60.6,60.6,0,0,0-5.45,3.43s-.05,3.8,0,5.6a9.61,9.61,0,0,0,4.93,8.17l97,55.26a28.1,28.1,0,0,0,30.67-1.92l47.08-48.45C498.1,647.49,503.71,631,501,615l-16.7-95.95Z"/><path class="cls-3" d="M403.58,467,419,575.13c1.88,12.44-3.73,23.17-17.83,28.57L313,632a9.72,9.72,0,0,0-.52,17.2l97,55.26a28.1,28.1,0,0,0,30.67-1.93l43.44-45.78c11.21-12.94,15.57-27.72,14.36-39.22l-15.4-105Z"/><path class="cls-2" d="M284.56,462.09c-13.85-8-25.18-27.63-25.18-43.62V97.23c0-16,11.33-22.53,25.18-14.54L628.85,281.47c13.85,8,25.18,27.62,25.18,43.61V646.39c0,16-11.33,22.53-25.18,14.53Z"/><polygon class="cls-2" points="253.05 89.33 266.83 80.94 640.37 302.72 647.86 661.83 632.27 671.3 253.05 89.33"/><path class="cls-3" d="M270.9,470.41c-13.85-8-25.18-27.62-25.18-43.61V105.55c0-16,11.33-22.53,25.18-14.53L615.19,289.79c13.85,8,25.18,27.62,25.18,43.61V654.71c0,16-11.33,22.53-25.18,14.53Z"/><path class="cls-4" d="M640.37,588.37v29L245.72,384.81V105.55c0-16,11.33-22.53,25.18-14.53L615.19,289.79c13.85,8,25.18,27.62,25.18,43.61Z"/><polygon class="cls-5" points="263.17 374.88 263.17 106.69 622.92 314.4 622.92 586.91 263.17 374.88"/><path class="cls-6" d="M443,524.24c-6.9-4-12.55-.73-12.55,7.24s5.65,17.76,12.55,21.75S455.6,554,455.6,546,450,528.22,443,524.24Z"/><path class="cls-7" d="M418.87,574.37l82.8,47.76A48.52,48.52,0,0,0,501,615l-2.27-13L416,554.21Z"/><polygon class="cls-7" points="268.48 117.38 622.92 322.02 622.92 314.4 263.17 106.69 263.17 374.88 268.48 378.01 268.48 117.38"/><path class="cls-7" d="M433.58,534.57c0-8,5.65-11.23,12.55-7.25a19.55,19.55,0,0,1,2.51,1.75,22.13,22.13,0,0,0-5.6-4.83c-6.9-4-12.55-.73-12.55,7.24,0,7,4.33,15.35,10,20C436.43,546.72,433.58,540.21,433.58,534.57Z"/></g><path class="cls-8" d="M451.82,314.24,222.38,181a4.31,4.31,0,0,0-6.47,3.73V348.88a12.75,12.75,0,0,0,6.34,11L451.68,493.14a4.31,4.31,0,0,0,6.47-3.73V325.25A12.73,12.73,0,0,0,451.82,314.24Z"/><path class="cls-9" d="M453.56,492.47V328.31a12.73,12.73,0,0,0-6.33-11L217.79,184a4.23,4.23,0,0,0-1.71-.52,4.31,4.31,0,0,1,6.3-2.54L451.82,314.24a12.73,12.73,0,0,1,6.33,11V489.41a4.29,4.29,0,0,1-4.75,4.26A4.7,4.7,0,0,0,453.56,492.47Z"/><polygon class="cls-10" points="399.77 382.7 398.71 382.7 398.71 462.37 399.77 462.99 399.77 382.7"/><polygon class="cls-10" points="254.6 378.68 255.66 379.29 255.66 301.76 254.6 301.76 254.6 378.68"/><polygon class="cls-10" points="298.15 403.97 299.21 404.58 299.21 322.75 298.15 322.75 298.15 403.97"/><polygon class="cls-10" points="349.61 433.86 350.67 434.47 350.67 301.76 349.61 301.76 349.61 433.86"/><path class="cls-10" d="M256.77,301.76a2,2,0,0,1-1.64,2.16c-.9,0-1.63-1-1.63-2.16s.73-2.17,1.63-2.17S256.77,300.56,256.77,301.76Z"/><path class="cls-10" d="M300.31,322.75c0,1.19-.73,2.16-1.63,2.16s-1.63-1-1.63-2.16.73-2.17,1.63-2.17S300.31,321.55,300.31,322.75Z"/><path class="cls-10" d="M351.77,301.76c0,1.19-.73,2.16-1.63,2.16s-1.63-1-1.63-2.16.73-2.17,1.63-2.17S351.77,300.56,351.77,301.76Z"/><ellipse class="cls-10" cx="399.24" cy="381.17" rx="1.63" ry="2.16"/><path class="cls-11" d="M215.91,345.24v-3.11a23.26,23.26,0,0,0,16.28-3l5.43-3.31A30,30,0,0,1,267,334.75l7.69,3.9a45.06,45.06,0,0,0,41.6-.4l3.37-1.8a29.81,29.81,0,0,1,41,13.53L382.94,397a100.52,100.52,0,0,0,42.21,45.06l33,18.37V464l-34.49-19.19a103.69,103.69,0,0,1-43.49-46.42l-22.3-47.06a26.74,26.74,0,0,0-36.76-12.15l-3.37,1.8a48.16,48.16,0,0,1-44.43.43l-7.68-3.91a27,27,0,0,0-26.42,1l-5.43,3.3A26.34,26.34,0,0,1,215.91,345.24Z"/><path class="cls-9" d="M462,458.07a1.53,1.53,0,0,0,.75-2.86L428.21,436A100.52,100.52,0,0,1,386,390.92l-22.31-47.06a29.81,29.81,0,0,0-41-13.53l-3.37,1.8a45.06,45.06,0,0,1-41.6.4l-7.69-3.9a30,30,0,0,0-29.39,1.11l-5.43,3.3a23.3,23.3,0,0,1-23.77.28l-4.43-2.56a1.53,1.53,0,1,0-1.53,2.65L210,336a26.39,26.39,0,0,0,26.89-.31l5.43-3.3a27,27,0,0,1,26.42-1l7.68,3.91a48.16,48.16,0,0,0,44.43-.43l3.37-1.8a26.74,26.74,0,0,1,36.76,12.15l22.3,47.06a103.69,103.69,0,0,0,43.49,46.42l34.55,19.22A1.54,1.54,0,0,0,462,458.07Z"/><path class="cls-12" d="M451.82,314.24,382.53,274v77.75a4.6,4.6,0,0,0,2.08,3.61l73.54,42.46V325.25A12.73,12.73,0,0,0,451.82,314.24Z"/><path class="cls-13" d="M390.53,227.8c0-1.32.93-1.86,2.08-1.2l191.8,110.74A4.61,4.61,0,0,1,586.5,341V459.57c0,1.32-.94,1.86-2.09,1.2L392.61,350a4.6,4.6,0,0,1-2.08-3.61Z"/><path class="cls-14" d="M539.2,359.18a72.54,72.54,0,0,0-4.35-6.66,67.79,67.79,0,0,0-4.94-5.95,55.13,55.13,0,0,0-5.35-5,41.2,41.2,0,0,0-5.52-3.82,29.3,29.3,0,0,0-5.16-2.37l5-15a45.41,45.41,0,0,1,8,3.63,57.84,57.84,0,0,1,7.62,5.27,70.18,70.18,0,0,1,6.9,6.44,82.84,82.84,0,0,1,6.14,7.4,89.49,89.49,0,0,1,5.32,8.13,88,88,0,0,1,4.38,8.67l-1.29.56-13.18,5.76A72.69,72.69,0,0,0,539.2,359.18Zm-1.85,59.39a26.69,26.69,0,0,0,5.33-.53,23.8,23.8,0,0,0,13.16-7.6,27.24,27.24,0,0,0,4.28-6.55,34.25,34.25,0,0,0,2.51-7.76,45,45,0,0,0,.84-8.73,57.81,57.81,0,0,0-.74-9.22l-15.6,2.49a41.4,41.4,0,0,1,.55,6.69,28.4,28.4,0,0,1-.53,5.65,17.9,17.9,0,0,1-1.33,4.17A11.57,11.57,0,0,1,544,400a8,8,0,0,1-4.54,2.62,11.31,11.31,0,0,1-3.28.16,18.27,18.27,0,0,1-4.25-.94,28.13,28.13,0,0,1-5.14-2.37,40.94,40.94,0,0,1-5.51-3.83,53.89,53.89,0,0,1-5.34-5,65.13,65.13,0,0,1-4.94-6,72.49,72.49,0,0,1-8-13.77,65.13,65.13,0,0,1-2.69-7.26,52.89,52.89,0,0,1-1.67-7.12,42.52,42.52,0,0,1-.56-6.69,29.27,29.27,0,0,1,.51-5.64A18.37,18.37,0,0,1,500,340a11.57,11.57,0,0,1,1.78-2.77,8,8,0,0,1,2-1.67,8.28,8.28,0,0,1,2.49-.94l.1-15.46h-.88a17.06,17.06,0,0,0-5.63.89,23.8,23.8,0,0,0-4,1.83,24.08,24.08,0,0,0-6,4.87,27.47,27.47,0,0,0-4.27,6.56,34.49,34.49,0,0,0-2.5,7.75,44.46,44.46,0,0,0-.82,8.73,58.85,58.85,0,0,0,.76,9.21,71.54,71.54,0,0,0,2.15,9.19,83.2,83.2,0,0,0,3.34,9A88,88,0,0,0,498.32,394a84.58,84.58,0,0,0,6.14,7.4,71.2,71.2,0,0,0,6.88,6.45,59,59,0,0,0,7.6,5.27,44.72,44.72,0,0,0,8,3.65,33.88,33.88,0,0,0,8,1.71C535.71,418.53,536.54,418.57,537.35,418.57Z"/><path class="cls-15" d="M584.41,337.34,392.61,226.6c-1.15-.66-2.08-.12-2.08,1.2v1.13L581.41,339.14a4.64,4.64,0,0,1,2.08,3.61V460.24l.92.53c1.15.66,2.09.12,2.09-1.2V341A4.61,4.61,0,0,0,584.41,337.34Z"/><polygon class="cls-16" points="446.22 285.39 446.22 293.62 403.46 268.93 403.46 260.38 446.22 285.39"/><polygon class="cls-16" points="474.55 327.29 474.55 335.52 403.46 294.91 403.46 286.36 474.55 327.29"/><polygon class="cls-16" points="474.55 348.94 474.55 357.17 403.46 316.57 403.46 308.01 474.55 348.94"/><polygon class="cls-16" points="474.55 369.15 474.55 377.38 403.46 336.78 403.46 328.22 474.55 369.15"/><path class="cls-4" d="M607.19,598.2c0,6.46-4.55,9-10.1,5.76L479.2,534.13c-5.55-3.3-10.16-11.28-10.23-17.74l-1.06-97.17c-.07-6.46,4.43-9.07,10-5.8l119.15,70c5.57,3.27,10.13,11.23,10.13,17.7Z"/><path class="cls-17" d="M607.19,597.35V529.74a10,10,0,0,0-1.9-3.39c-2.67-3-7.16-3.68-11.08-2.89s-7.44,2.82-11,4.65c-5.1,2.62-10.49,4.9-16.2,5.43s-11.8-.87-16-4.81-6.4-10.46-11.81-12.68c-4.8-2-10.16.21-15.11,1.76-10.92,3.42-24.21,3.15-32.21-5-4.67-4.78-7.58-12.14-14.06-13.77-.4-.09-.8-.17-1.19-.22a13.13,13.13,0,0,0-7.88,1.85l.17,15.76c.07,6.46,4.68,14.44,10.24,17.74l10,5.92c6.68,3.74,13.27,7.63,19.84,11.55l55.66,33.18L597.09,604a9.59,9.59,0,0,0,3.91,1.39,4.32,4.32,0,0,0,1.34-.11c2.71-.72,3.92-3.81,4.58-6.53C607,598.26,607.09,597.8,607.19,597.35Z"/><path class="cls-18" d="M603.67,600.55V503.42c0-6.46-4.56-14.42-10.13-17.69l-119.15-70a8.33,8.33,0,0,0-5.36-1.34c1.67-2.71,5-3.28,8.88-1l119.15,70c5.57,3.27,10.13,11.23,10.13,17.7V598.2c0,4.15-1.88,6.69-4.69,7.11A9,9,0,0,0,603.67,600.55Z"/><path class="cls-19" d="M249.09,283.74a1.68,1.68,0,0,0,.27-1,2.31,2.31,0,0,0-.3-1.08,1.8,1.8,0,0,0-.7-.74c-.52-.28-1-.05-1.41.71l-1.5-2a2.55,2.55,0,0,1,1.19-1.17,2.08,2.08,0,0,1,1.71.31,5.12,5.12,0,0,1,1.89,1.92,6,6,0,0,1,.89,2.93,3.11,3.11,0,0,1-.27,1.48,5,5,0,0,1-1.1,1.39l-1.4,1.3,3.22,1.73.07,2.24-5.74-3.09-.07-1.85,2.27-2.08A5.86,5.86,0,0,0,249.09,283.74Z"/><path class="cls-19" d="M256.3,294.44a5.93,5.93,0,0,1-2.58-2.93,12.51,12.51,0,0,1-1-4.66,6.32,6.32,0,0,1,.68-3.75c.52-.75,1.35-.83,2.48-.22a5.82,5.82,0,0,1,2.57,2.93,12.27,12.27,0,0,1,1,4.66,6.32,6.32,0,0,1-.7,3.75C258.26,295,257.43,295,256.3,294.44Zm-1.49-9.12a6,6,0,0,0-.29,2.49,10.16,10.16,0,0,0,.48,2.91,2.81,2.81,0,0,0,1.23,1.67c.55.29.94.17,1.17-.37a6.23,6.23,0,0,0,.29-2.5,10.52,10.52,0,0,0-.48-2.91,2.81,2.81,0,0,0-1.24-1.67A.73.73,0,0,0,254.81,285.32Z"/><path class="cls-19" d="M260.29,285.49l3.29,1.77.39,11.18-1.74-.94-.32-9.05-1.55-.83Z"/><path class="cls-19" d="M266.36,289.37a2,2,0,0,1,2,.2,5.66,5.66,0,0,1,2,2,5.13,5.13,0,0,1,.87,2.6,2.11,2.11,0,0,1-.64,1.82,6.42,6.42,0,0,1,1.1,3.36,2.13,2.13,0,0,1-.76,2,2.16,2.16,0,0,1-2.22-.21,6.48,6.48,0,0,1-3.23-5.15c0-1.16.26-1.92.91-2.27a5.68,5.68,0,0,1-.81-2.62A1.75,1.75,0,0,1,266.36,289.37Zm1.42,8.83a2.64,2.64,0,0,0,.9.85,1,1,0,0,0,.87.1c.27-.1.39-.39.37-.87a2.41,2.41,0,0,0-.43-1.32,2.65,2.65,0,0,0-.92-.86,1,1,0,0,0-.88-.1c-.26.11-.37.41-.35.89A2.29,2.29,0,0,0,267.78,298.2Zm-.06-4.82a2.24,2.24,0,0,0,.79.8.7.7,0,0,0,.76,0,.81.81,0,0,0,.3-.77,2.49,2.49,0,0,0-.36-1.13,2.18,2.18,0,0,0-.8-.8.72.72,0,0,0-.76,0,.82.82,0,0,0-.29.78A2.27,2.27,0,0,0,267.72,293.38Z"/><path class="cls-19" d="M292.85,303.4a1.69,1.69,0,0,0,.27-1,2.38,2.38,0,0,0-.3-1.08,1.86,1.86,0,0,0-.7-.74q-.78-.42-1.41.72l-1.5-2a2.62,2.62,0,0,1,1.2-1.17,2.12,2.12,0,0,1,1.7.32,5.08,5.08,0,0,1,1.89,1.91,6,6,0,0,1,.89,2.93,3.09,3.09,0,0,1-.27,1.48,4.76,4.76,0,0,1-1.1,1.39l-1.4,1.3,3.22,1.74.07,2.23-5.74-3.09-.07-1.85,2.27-2.07A6.21,6.21,0,0,0,292.85,303.4Z"/><path class="cls-19" d="M300.06,314.09a5.85,5.85,0,0,1-2.58-2.93,12.47,12.47,0,0,1-1-4.66,6.34,6.34,0,0,1,.68-3.75c.52-.75,1.35-.82,2.48-.22a5.8,5.8,0,0,1,2.57,2.94,12.22,12.22,0,0,1,1,4.65,6.37,6.37,0,0,1-.7,3.76C302,314.63,301.19,314.7,300.06,314.09ZM298.57,305a6.05,6.05,0,0,0-.29,2.5,10.16,10.16,0,0,0,.48,2.91A2.79,2.79,0,0,0,300,312c.55.3.94.17,1.17-.37a6.2,6.2,0,0,0,.29-2.49,10.1,10.1,0,0,0-.48-2.91,2.81,2.81,0,0,0-1.24-1.68A.73.73,0,0,0,298.57,305Z"/><path class="cls-19" d="M304.05,305.15l3.29,1.77.39,11.17-1.74-.94-.32-9-1.55-.83Z"/><path class="cls-19" d="M311.9,318.36c.51.27.89.25,1.15-.07a2.8,2.8,0,0,0,.44-1.62,1.85,1.85,0,0,1-1.58-.17,5,5,0,0,1-1.94-2.07,6.73,6.73,0,0,1-.86-3.13,2.6,2.6,0,0,1,.72-2.28,1.8,1.8,0,0,1,2,.08,5.07,5.07,0,0,1,1.52,1.26,6.67,6.67,0,0,1,1,1.8,13.5,13.5,0,0,1,.82,4.34,10.71,10.71,0,0,1-.17,2.55,2.93,2.93,0,0,1-.68,1.43,1.82,1.82,0,0,1-2.27.09,5.12,5.12,0,0,1-1.11-.82,6.48,6.48,0,0,1-.8-.89,11,11,0,0,1-.64-.93l.84-1.27c.07.1.13.22.23.37a5.7,5.7,0,0,0,.53.68A2.6,2.6,0,0,0,311.9,318.36Zm.11-3.9a.83.83,0,0,0,.89.06,1,1,0,0,0,.32-.94,3.14,3.14,0,0,0-.4-1.41,2.18,2.18,0,0,0-.89-1c-.34-.19-.62-.2-.83,0a1.22,1.22,0,0,0-.3,1,3.38,3.38,0,0,0,.35,1.35A2,2,0,0,0,312,314.46Z"/><path class="cls-19" d="M344.17,286.07a1.67,1.67,0,0,0,.26-1,2.31,2.31,0,0,0-.3-1.08,1.77,1.77,0,0,0-.7-.75c-.51-.27-1,0-1.4.72l-1.5-2a2.57,2.57,0,0,1,1.19-1.16,2.09,2.09,0,0,1,1.71.31,5,5,0,0,1,1.88,1.92,5.85,5.85,0,0,1,.89,2.93,3.14,3.14,0,0,1-.26,1.48,5.31,5.31,0,0,1-1.11,1.39l-1.4,1.3,3.22,1.73.08,2.24L341,291.05l-.07-1.86,2.27-2.07A6.25,6.25,0,0,0,344.17,286.07Z"/><path class="cls-19" d="M351.38,296.76a5.8,5.8,0,0,1-2.58-2.93,12.42,12.42,0,0,1-1-4.66,6.41,6.41,0,0,1,.69-3.75c.52-.75,1.35-.82,2.47-.21a5.8,5.8,0,0,1,2.58,2.93,12.42,12.42,0,0,1,1,4.66,6.33,6.33,0,0,1-.69,3.75C353.33,297.3,352.51,297.37,351.38,296.76Zm-1.5-9.11a6.15,6.15,0,0,0-.29,2.49,10.52,10.52,0,0,0,.48,2.91,2.82,2.82,0,0,0,1.24,1.67.73.73,0,0,0,1.16-.38,6,6,0,0,0,.29-2.49,10.16,10.16,0,0,0-.48-2.91,2.78,2.78,0,0,0-1.24-1.67A.73.73,0,0,0,349.88,287.65Z"/><path class="cls-19" d="M359.25,294.18a1.59,1.59,0,0,0,.26-1,2.31,2.31,0,0,0-.3-1.08,1.76,1.76,0,0,0-.7-.75c-.51-.27-1,0-1.4.72l-1.5-2A2.55,2.55,0,0,1,356.8,289a2.08,2.08,0,0,1,1.71.31,5.19,5.19,0,0,1,1.89,1.92,5.94,5.94,0,0,1,.88,2.93,3.12,3.12,0,0,1-.26,1.48,5,5,0,0,1-1.11,1.39l-1.4,1.3,3.22,1.73.08,2.24-5.75-3.09-.06-1.85,2.27-2.08A6.71,6.71,0,0,0,359.25,294.18Z"/><path class="cls-19" d="M366.46,304.88a6,6,0,0,1-2.59-2.94,12.61,12.61,0,0,1-1-4.65,6.39,6.39,0,0,1,.69-3.75c.52-.75,1.35-.83,2.47-.22a6,6,0,0,1,2.59,2.93,12.67,12.67,0,0,1,1,4.66,6.41,6.41,0,0,1-.69,3.75C368.41,305.41,367.59,305.48,366.46,304.88ZM365,295.76a5.84,5.84,0,0,0-.29,2.49,10.12,10.12,0,0,0,.47,2.91,2.86,2.86,0,0,0,1.24,1.67.72.72,0,0,0,1.16-.38,6,6,0,0,0,.29-2.49,10.16,10.16,0,0,0-.48-2.91,2.84,2.84,0,0,0-1.23-1.67A.73.73,0,0,0,365,295.76Z"/><path class="cls-19" d="M393.15,364.24a1.68,1.68,0,0,0,.27-1,2.39,2.39,0,0,0-.31-1.08,1.72,1.72,0,0,0-.69-.74q-.78-.42-1.41.72l-1.5-2A2.6,2.6,0,0,1,390.7,359a2.06,2.06,0,0,1,1.71.32,5.16,5.16,0,0,1,1.89,1.91,6,6,0,0,1,.89,2.93,3.11,3.11,0,0,1-.27,1.48,4.76,4.76,0,0,1-1.1,1.39l-1.4,1.3,3.21,1.73.08,2.24L390,369.22l-.07-1.85,2.27-2.08A5.86,5.86,0,0,0,393.15,364.24Z"/><path class="cls-19" d="M400.36,374.94a5.87,5.87,0,0,1-2.58-2.94,12.61,12.61,0,0,1-1-4.65,6.42,6.42,0,0,1,.69-3.76c.52-.75,1.35-.81,2.47-.21a5.84,5.84,0,0,1,2.58,2.93,12.47,12.47,0,0,1,1,4.66,6.4,6.4,0,0,1-.7,3.75C402.31,375.47,401.49,375.54,400.36,374.94Zm-1.49-9.12a6,6,0,0,0-.3,2.5,10.83,10.83,0,0,0,.48,2.9,2.86,2.86,0,0,0,1.24,1.67.72.72,0,0,0,1.16-.38,6,6,0,0,0,.3-2.49,10.91,10.91,0,0,0-.48-2.91,2.85,2.85,0,0,0-1.24-1.67A.73.73,0,0,0,398.87,365.82Z"/><path class="cls-19" d="M408.23,372.36a1.63,1.63,0,0,0,.26-1,2.49,2.49,0,0,0-.29-1.08,1.82,1.82,0,0,0-.71-.74c-.51-.28-1,0-1.4.72l-1.5-2a2.65,2.65,0,0,1,1.19-1.17,2.1,2.1,0,0,1,1.71.32,5.08,5.08,0,0,1,1.89,1.91,5.87,5.87,0,0,1,.88,2.93,3.09,3.09,0,0,1-.26,1.48,4.66,4.66,0,0,1-1.11,1.39l-1.4,1.3,3.23,1.73.07,2.24-5.74-3.09-.07-1.85,2.27-2.07A7.14,7.14,0,0,0,408.23,372.36Z"/><path class="cls-19" d="M411.39,369.78l3.3,1.77.39,11.18-1.75-.94-.32-9.05-1.54-.83Z"/><path class="cls-17" d="M383.61,245.72c0,9.11-6.42,12.77-14.26,8.12L203.1,155.36c-7.84-4.65-14.33-15.9-14.43-25l-1.5-44.3c-.1-9.11,6.25-12.79,14.11-8.18l168,98.67c7.86,4.61,14.29,15.84,14.29,25Z"/><path class="cls-4" d="M378.64,249V204.81c0-9.11-6.43-20.34-14.29-25l-168-98.66a11.73,11.73,0,0,0-7.55-1.89c2.35-3.83,7.07-4.63,12.52-1.43l168,98.67c7.86,4.61,14.29,15.84,14.29,25v44.22c0,5.85-2.66,9.43-6.63,10A12.59,12.59,0,0,0,378.64,249Z"/><polygon class="cls-16" points="367.32 200.31 367.32 206.73 202.59 111.85 202.59 105.17 367.32 200.31"/><polygon class="cls-16" points="367.32 218.23 367.32 224.65 202.59 129.76 202.59 123.09 367.32 218.23"/><polygon class="cls-16" points="367.32 236.14 367.32 242.56 202.59 147.67 202.59 141 367.32 236.14"/></g></g></svg>